<?xml version="1.0" encoding="UTF-8" standalone="no"?>
<!DOCTYPE svg PUBLIC "-//W3C//DTD SVG 1.1//EN"
 "http://www.w3.org/Graphics/SVG/1.1/DTD/svg11.dtd">
<!-- Generated by graphviz version 13.1.2 (20250808.2320)
 -->
<!-- Title: G Pages: 1 -->
<svg width="494pt" height="123pt"
 viewBox="0.00 0.00 494.00 123.00" xmlns="http://www.w3.org/2000/svg" xmlns:xlink="http://www.w3.org/1999/xlink">
<g id="graph0" class="graph" transform="scale(1 1) rotate(0) translate(4 119.2)">
<title>G</title>
<!-- A -->
<g id="node1" class="node">
<title>A</title>
<polygon fill="none" stroke="black" stroke-width="3" points="43.2,-115.2 0,-115.2 0,-72 43.2,-72 43.2,-115.2"/>
<text xml:space="preserve" text-anchor="middle" x="21.6" y="-86.4" font-family="monospace" font-size="24.00">A</text>
</g>
<!-- B -->
<g id="node2" class="node">
<title>B</title>
<polygon fill="none" stroke="black" stroke-width="3" points="115.2,-115.2 72,-115.2 72,-72 115.2,-72 115.2,-115.2"/>
<text xml:space="preserve" text-anchor="middle" x="93.6" y="-86.4" font-family="monospace" font-size="24.00">B</text>
</g>
<!-- A&#45;&gt;B -->
<g id="edge3" class="edge">
<title>A&#45;&gt;B</title>
<path fill="none" stroke="black" stroke-width="3" d="M44.38,-93.6C52.79,-93.6 62.31,-93.6 70.72,-93.6"/>
</g>
<!-- C -->
<g id="node3" class="node">
<title>C</title>
<polygon fill="none" stroke="black" stroke-width="3" points="187.2,-115.2 144,-115.2 144,-72 187.2,-72 187.2,-115.2"/>
<text xml:space="preserve" text-anchor="middle" x="165.6" y="-86.4" font-family="monospace" font-size="24.00">C</text>
</g>
<!-- B&#45;&gt;C -->
<g id="edge4" class="edge">
<title>B&#45;&gt;C</title>
<path fill="none" stroke="black" stroke-width="3" d="M116.38,-93.6C124.79,-93.6 134.31,-93.6 142.72,-93.6"/>
</g>
<!-- D -->
<g id="node4" class="node">
<title>D</title>
<polygon fill="none" stroke="black" stroke-width="3" points="259.2,-115.2 216,-115.2 216,-72 259.2,-72 259.2,-115.2"/>
<text xml:space="preserve" text-anchor="middle" x="237.6" y="-86.4" font-family="monospace" font-size="24.00">D</text>
</g>
<!-- C&#45;&gt;D -->
<g id="edge5" class="edge">
<title>C&#45;&gt;D</title>
<path fill="none" stroke="black" stroke-width="3" d="M188.38,-93.6C196.79,-93.6 206.31,-93.6 214.72,-93.6"/>
</g>
<!-- E -->
<g id="node5" class="node">
<title>E</title>
<polygon fill="none" stroke="black" stroke-width="3" points="331.2,-115.2 288,-115.2 288,-72 331.2,-72 331.2,-115.2"/>
<text xml:space="preserve" text-anchor="middle" x="309.6" y="-86.4" font-family="monospace" font-size="24.00">E</text>
</g>
<!-- D&#45;&gt;E -->
<g id="edge6" class="edge">
<title>D&#45;&gt;E</title>
<path fill="none" stroke="black" stroke-width="3" d="M260.38,-93.6C268.79,-93.6 278.31,-93.6 286.72,-93.6"/>
</g>
<!-- main_label -->
<g id="node6" class="node">
<title>main_label</title>
<text xml:space="preserve" text-anchor="middle" x="453.6" y="-86.4" font-family="monospace" font-size="24.00" fill="#f14e32">main</text>
</g>
<!-- main_label&#45;&gt;E -->
<g id="edge1" class="edge">
<title>main_label&#45;&gt;E</title>
<path fill="none" stroke="black" stroke-width="3" d="M421.64,-93.6C399.59,-93.6 370.19,-93.6 347.04,-93.6"/>
<polygon fill="black" stroke="black" stroke-width="3" points="347.06,-90.1 337.06,-93.6 347.06,-97.1 347.06,-90.1"/>
</g>
<!-- banana_label -->
<g id="node7" class="node">
<title>banana_label</title>
<text xml:space="preserve" text-anchor="middle" x="309.6" y="-14.4" font-family="monospace" font-size="24.00">banana</text>
</g>
<!-- banana_label&#45;&gt;E -->
<g id="edge2" class="edge">
<title>banana_label&#45;&gt;E</title>
<path fill="none" stroke="black" stroke-width="3" d="M309.6,-42.81C309.6,-47.03 309.6,-51.58 309.6,-56.16"/>
<polygon fill="black" stroke="black" stroke-width="3" points="306.1,-55.99 309.6,-65.99 313.1,-55.99 306.1,-55.99"/>
</g>
</g>
</svg>
