<?xml version="1.0" encoding="UTF-8" standalone="no"?>
<!DOCTYPE svg PUBLIC "-//W3C//DTD SVG 1.1//EN"
 "http://www.w3.org/Graphics/SVG/1.1/DTD/svg11.dtd">
<!-- Generated by graphviz version 13.1.2 (20250808.2320)
 -->
<!-- Title: G Pages: 1 -->
<svg width="422pt" height="123pt"
 viewBox="0.00 0.00 422.00 123.00" xmlns="http://www.w3.org/2000/svg" xmlns:xlink="http://www.w3.org/1999/xlink">
<g id="graph0" class="graph" transform="scale(1 1) rotate(0) translate(4 119.2)">
<title>G</title>
<!-- A -->
<g id="node1" class="node">
<title>A</title>
<polygon fill="none" stroke="black" stroke-width="3" points="43.2,-115.2 0,-115.2 0,-72 43.2,-72 43.2,-115.2"/>
<text xml:space="preserve" text-anchor="middle" x="21.6" y="-86.4" font-family="monospace" font-size="24.00">A</text>
</g>
<!-- B -->
<g id="node2" class="node">
<title>B</title>
<polygon fill="none" stroke="black" stroke-width="3" points="115.2,-115.2 72,-115.2 72,-72 115.2,-72 115.2,-115.2"/>
<text xml:space="preserve" text-anchor="middle" x="93.6" y="-86.4" font-family="monospace" font-size="24.00">B</text>
</g>
<!-- A&#45;&gt;B -->
<g id="edge2" class="edge">
<title>A&#45;&gt;B</title>
<path fill="none" stroke="black" stroke-width="3" d="M44.38,-93.6C52.79,-93.6 62.31,-93.6 70.72,-93.6"/>
</g>
<!-- C -->
<g id="node3" class="node">
<title>C</title>
<polygon fill="none" stroke="black" stroke-width="3" points="187.2,-115.2 144,-115.2 144,-72 187.2,-72 187.2,-115.2"/>
<text xml:space="preserve" text-anchor="middle" x="165.6" y="-86.4" font-family="monospace" font-size="24.00">C</text>
</g>
<!-- B&#45;&gt;C -->
<g id="edge3" class="edge">
<title>B&#45;&gt;C</title>
<path fill="none" stroke="black" stroke-width="3" d="M116.38,-93.6C124.79,-93.6 134.31,-93.6 142.72,-93.6"/>
</g>
<!-- D -->
<g id="node4" class="node">
<title>D</title>
<polygon fill="none" stroke="#f14e32" stroke-width="3" points="187.2,-43.2 144,-43.2 144,0 187.2,0 187.2,-43.2"/>
<text xml:space="preserve" text-anchor="middle" x="165.6" y="-14.4" font-family="monospace" font-size="24.00">D</text>
</g>
<!-- B&#45;&gt;D -->
<g id="edge4" class="edge">
<title>B&#45;&gt;D</title>
<path fill="none" stroke="black" stroke-width="3" d="M116.38,-70.82C124.79,-62.41 134.31,-52.89 142.72,-44.48"/>
</g>
<!-- E -->
<g id="node5" class="node">
<title>E</title>
<polygon fill="none" stroke="black" stroke-width="3" points="259.2,-43.2 216,-43.2 216,0 259.2,0 259.2,-43.2"/>
<text xml:space="preserve" text-anchor="middle" x="237.6" y="-14.4" font-family="monospace" font-size="24.00">E</text>
</g>
<!-- D&#45;&gt;E -->
<g id="edge5" class="edge">
<title>D&#45;&gt;E</title>
<path fill="none" stroke="black" stroke-width="3" d="M188.38,-21.6C196.79,-21.6 206.31,-21.6 214.72,-21.6"/>
</g>
<!-- main_label -->
<g id="node6" class="node">
<title>main_label</title>
<text xml:space="preserve" text-anchor="middle" x="381.6" y="-86.4" font-family="monospace" font-size="24.00">main</text>
</g>
<!-- main_label&#45;&gt;C -->
<g id="edge1" class="edge">
<title>main_label&#45;&gt;C</title>
<path fill="none" stroke="black" stroke-width="3" d="M349.73,-93.6C310.62,-93.6 244.42,-93.6 202.96,-93.6"/>
<polygon fill="black" stroke="black" stroke-width="3" points="203.18,-90.1 193.18,-93.6 203.18,-97.1 203.18,-90.1"/>
</g>
</g>
</svg>
